<mxfile host="app.diagrams.net" agent="Mozilla/5.0 (Windows NT 10.0; Win64; x64) AppleWebKit/537.36 (KHTML, like Gecko) Chrome/132.0.0.0 Safari/537.36" version="26.0.15">
  <diagram name="Page-1" id="Q3jhm5vI2tyWqcHBGG4V">
    <mxGraphModel dx="1434" dy="738" grid="1" gridSize="10" guides="1" tooltips="1" connect="1" arrows="1" fold="1" page="1" pageScale="1" pageWidth="850" pageHeight="1100" math="0" shadow="0">
      <root>
        <mxCell id="0" />
        <mxCell id="1" parent="0" />
        <mxCell id="-dffeWQTfGdv_m1E5jHD-13" style="edgeStyle=orthogonalEdgeStyle;rounded=0;orthogonalLoop=1;jettySize=auto;html=1;entryX=0.5;entryY=1;entryDx=0;entryDy=0;" edge="1" parent="1" source="-dffeWQTfGdv_m1E5jHD-1" target="-dffeWQTfGdv_m1E5jHD-8">
          <mxGeometry relative="1" as="geometry" />
        </mxCell>
        <mxCell id="-dffeWQTfGdv_m1E5jHD-1" value="" style="rounded=1;whiteSpace=wrap;html=1;fillColor=#dae8fc;strokeColor=#6c8ebf;" vertex="1" parent="1">
          <mxGeometry x="170" y="280" width="120" height="60" as="geometry" />
        </mxCell>
        <mxCell id="-dffeWQTfGdv_m1E5jHD-14" style="edgeStyle=orthogonalEdgeStyle;rounded=0;orthogonalLoop=1;jettySize=auto;html=1;entryX=0.5;entryY=1;entryDx=0;entryDy=0;" edge="1" parent="1" source="-dffeWQTfGdv_m1E5jHD-2" target="-dffeWQTfGdv_m1E5jHD-9">
          <mxGeometry relative="1" as="geometry" />
        </mxCell>
        <mxCell id="-dffeWQTfGdv_m1E5jHD-2" value="" style="rounded=1;whiteSpace=wrap;html=1;fillColor=#fff2cc;strokeColor=#d6b656;" vertex="1" parent="1">
          <mxGeometry x="320" y="280" width="120" height="60" as="geometry" />
        </mxCell>
        <mxCell id="-dffeWQTfGdv_m1E5jHD-3" value="" style="rounded=1;whiteSpace=wrap;html=1;fillColor=#ffe6cc;strokeColor=#d79b00;" vertex="1" parent="1">
          <mxGeometry x="480" y="180" width="120" height="60" as="geometry" />
        </mxCell>
        <mxCell id="-dffeWQTfGdv_m1E5jHD-5" value="" style="pointerEvents=1;verticalLabelPosition=bottom;shadow=0;dashed=0;align=center;html=1;verticalAlign=top;shape=mxgraph.electrical.waveforms.sine_wave;aspect=fixed;strokeWidth=2;" vertex="1" parent="1">
          <mxGeometry x="198.3" y="286.7" width="63.4" height="46.6" as="geometry" />
        </mxCell>
        <mxCell id="-dffeWQTfGdv_m1E5jHD-6" value="" style="sketch=0;pointerEvents=1;shadow=0;dashed=0;html=1;strokeColor=none;fillColor=#000000;labelPosition=center;verticalLabelPosition=bottom;verticalAlign=top;outlineConnect=0;align=center;shape=mxgraph.office.concepts.video_play;" vertex="1" parent="1">
          <mxGeometry x="355" y="290" width="50" height="40" as="geometry" />
        </mxCell>
        <mxCell id="-dffeWQTfGdv_m1E5jHD-8" value="Encoder" style="shape=trapezoid;perimeter=trapezoidPerimeter;whiteSpace=wrap;html=1;fixedSize=1;fillColor=#dae8fc;strokeColor=#6c8ebf;" vertex="1" parent="1">
          <mxGeometry x="170" y="180" width="120" height="60" as="geometry" />
        </mxCell>
        <mxCell id="-dffeWQTfGdv_m1E5jHD-9" value="Encoder" style="shape=trapezoid;perimeter=trapezoidPerimeter;whiteSpace=wrap;html=1;fixedSize=1;fillColor=#fff2cc;strokeColor=#d6b656;" vertex="1" parent="1">
          <mxGeometry x="320" y="180" width="120" height="60" as="geometry" />
        </mxCell>
        <mxCell id="-dffeWQTfGdv_m1E5jHD-10" value="Aligner" style="rounded=0;whiteSpace=wrap;html=1;fillColor=#d5e8d4;strokeColor=#82b366;" vertex="1" parent="1">
          <mxGeometry x="170" y="100" width="270" height="40" as="geometry" />
        </mxCell>
        <mxCell id="-dffeWQTfGdv_m1E5jHD-11" value="" style="html=1;strokeWidth=1;shadow=0;dashed=0;shape=mxgraph.ios7.misc.text_size;fillColor=#000000;strokeColor=none;buttonText=;strokeColor2=#222222;fontColor=#222222;fontSize=8;verticalLabelPosition=bottom;verticalAlign=top;align=center;sketch=0;aspect=fixed;" vertex="1" parent="1">
          <mxGeometry x="520" y="190" width="40" height="40" as="geometry" />
        </mxCell>
        <mxCell id="-dffeWQTfGdv_m1E5jHD-20" style="edgeStyle=orthogonalEdgeStyle;rounded=0;orthogonalLoop=1;jettySize=auto;html=1;exitX=0.5;exitY=0;exitDx=0;exitDy=0;entryX=0.778;entryY=0.925;entryDx=0;entryDy=0;entryPerimeter=0;" edge="1" parent="1" source="-dffeWQTfGdv_m1E5jHD-9" target="-dffeWQTfGdv_m1E5jHD-10">
          <mxGeometry relative="1" as="geometry" />
        </mxCell>
        <mxCell id="-dffeWQTfGdv_m1E5jHD-21" style="edgeStyle=orthogonalEdgeStyle;rounded=0;orthogonalLoop=1;jettySize=auto;html=1;entryX=0.219;entryY=0.95;entryDx=0;entryDy=0;entryPerimeter=0;" edge="1" parent="1" source="-dffeWQTfGdv_m1E5jHD-8" target="-dffeWQTfGdv_m1E5jHD-10">
          <mxGeometry relative="1" as="geometry" />
        </mxCell>
        <mxCell id="-dffeWQTfGdv_m1E5jHD-22" value="LLM" style="rounded=0;whiteSpace=wrap;html=1;fillColor=#f8cecc;strokeColor=#b85450;" vertex="1" parent="1">
          <mxGeometry x="170" y="20" width="430" height="40" as="geometry" />
        </mxCell>
        <mxCell id="-dffeWQTfGdv_m1E5jHD-23" style="edgeStyle=orthogonalEdgeStyle;rounded=0;orthogonalLoop=1;jettySize=auto;html=1;entryX=0.86;entryY=1.05;entryDx=0;entryDy=0;entryPerimeter=0;" edge="1" parent="1" source="-dffeWQTfGdv_m1E5jHD-3" target="-dffeWQTfGdv_m1E5jHD-22">
          <mxGeometry relative="1" as="geometry" />
        </mxCell>
        <mxCell id="-dffeWQTfGdv_m1E5jHD-24" style="edgeStyle=orthogonalEdgeStyle;rounded=0;orthogonalLoop=1;jettySize=auto;html=1;entryX=0.312;entryY=1.025;entryDx=0;entryDy=0;entryPerimeter=0;" edge="1" parent="1" source="-dffeWQTfGdv_m1E5jHD-10" target="-dffeWQTfGdv_m1E5jHD-22">
          <mxGeometry relative="1" as="geometry" />
        </mxCell>
      </root>
    </mxGraphModel>
  </diagram>
</mxfile>
